<svg width="512.001" xmlns="http://www.w3.org/2000/svg" height="512.001" id="screenshot-b9681bf7-c786-808b-8007-48453895d040" viewBox="0 0 512.001 512.001" xmlns:xlink="http://www.w3.org/1999/xlink" fill="none" version="1.1"><g id="shape-b9681bf7-c786-808b-8007-48453895d040" height="800" width="800" xml:space="preserve" rx="0" ry="0" style="fill: rgb(0, 0, 0);"><g id="shape-b9681bf7-c786-808b-8007-4845389734c5" style="display: none;"><g class="fills" id="fills-b9681bf7-c786-808b-8007-4845389734c5"><rect width="512.0010000000002" height="512.001" x="0" transform="matrix(1.000000, 0.000000, 0.000000, 1.000000, 0.000000, 0.000000)" style="fill: none;" ry="0" fill="none" rx="0" y="0"/></g></g><g id="shape-b9681bf7-c786-808b-8007-484538975275"><g class="fills" id="fills-b9681bf7-c786-808b-8007-484538975275"><path d="M456.97802734375,106.57000732421875C461.3310546875,102.218994140625,461.3310546875,95.093994140625,456.97802734375,90.739990234375L424.7861328125,58.548004150390625C420.429931640625,54.19500732421875,413.30810546875,54.19500732421875,408.9560546875,58.548004150390625L365.44189453125,102.0589599609375C361.0888671875,106.4119873046875,361.0888671875,113.5379638671875,365.44189453125,117.8890380859375L397.635009765625,150.0830078125C401.988037109375,154.43603515625,409.11083984375,154.43603515625,413.4638671875,150.0830078125L456.97802734375,106.57000732421875Z" style="fill: rgb(252, 163, 38); fill-opacity: 1;"/></g></g><g id="shape-b9681bf7-c786-808b-8007-484538979986" style="opacity: 0.2;"><g class="fills" id="fills-b9681bf7-c786-808b-8007-484538979986"><path d="M395.39111328125,128.18402099609375C393.33203125,128.18402099609375,391.27197265625,127.39898681640625,389.700927734375,125.8280029296875C386.55712890625,122.68499755859375,386.55712890625,117.5889892578125,389.699951171875,114.447021484375L421.3369140625,82.8070068359375C424.48095703125,79.6629638671875,429.5771484375,79.66400146484375,432.718017578125,82.8060302734375C435.862060546875,85.948974609375,435.862060546875,91.04498291015625,432.718994140625,94.18701171875L401.08203125,125.8270263671875C399.510009765625,127.39898681640625,397.449951171875,128.18402099609375,395.39111328125,128.18402099609375Z"/></g></g><g id="shape-b9681bf7-c786-808b-8007-484538979987" style="opacity: 0.2;"><g class="fills" id="fills-b9681bf7-c786-808b-8007-484538979987"><path d="M388.14794921875,79.35601806640625L365.44384765625,102.05999755859375C361.091064453125,106.4129638671875,361.091064453125,113.53900146484375,365.44384765625,117.8900146484375L397.636962890625,150.083984375C401.989990234375,154.43701171875,409.113037109375,154.43701171875,413.466064453125,150.083984375L439.24609375,124.3060302734375C424.44091796875,107.02899169921875,407.23486328125,91.87799072265625,388.14794921875,79.35601806640625Z"/></g></g><g id="shape-b9681bf7-c786-808b-8007-484538979988"><g class="fills" id="fills-b9681bf7-c786-808b-8007-484538979988"><path d="M55.031982421875,106.57000732421875C50.677978515625,102.218994140625,50.677978515625,95.093994140625,55.031982421875,90.739990234375L87.22412109375,58.548004150390625C91.578125,54.19500732421875,98.700927734375,54.19500732421875,103.053955078125,58.548004150390625L146.56787109375,102.0589599609375C150.919921875,106.4119873046875,150.919921875,113.5379638671875,146.56787109375,117.8890380859375L114.375,150.0830078125C110.02294921875,154.43603515625,102.89892578125,154.43603515625,98.5458984375,150.0830078125L55.031982421875,106.57000732421875Z" style="fill: rgb(125, 134, 140);"/></g></g><g id="shape-b9681bf7-c786-808b-8007-48453897e572" style="opacity: 0.2;"><g class="fills" id="fills-b9681bf7-c786-808b-8007-48453897e572"><path d="M116.619140625,128.18402099609375C114.56005859375,128.18402099609375,112.5,127.39898681640625,110.927978515625,125.82598876953125L79.2890625,94.18603515625C76.14599609375,91.04296875,76.14697265625,85.947021484375,79.2890625,82.80499267578125C82.43212890625,79.6619873046875,87.528076171875,79.6629638671875,90.6708984375,82.8060302734375L122.30908203125,114.44598388671875C125.4521484375,117.5889892578125,125.450927734375,122.68499755859375,122.30810546875,125.8270263671875C120.738037109375,127.39898681640625,118.677978515625,128.18402099609375,116.619140625,128.18402099609375Z"/></g></g><g id="shape-b9681bf7-c786-808b-8007-48453897e573" style="opacity: 0.2;"><g class="fills" id="fills-b9681bf7-c786-808b-8007-48453897e573"><path d="M146.56689453125,102.05999755859375L123.85791015625,79.35198974609375C104.76904296875,91.875,87.56494140625,107.0250244140625,72.760986328125,124.301025390625L98.54296875,150.0830078125C102.89599609375,154.43603515625,110.01904296875,154.43603515625,114.3720703125,150.0830078125L146.56494140625,117.8890380859375C150.9189453125,113.53900146484375,150.9189453125,106.4129638671875,146.56689453125,102.05999755859375Z"/></g></g><g id="shape-b9681bf7-c786-808b-8007-48453897e574"><g class="fills" id="fills-b9681bf7-c786-808b-8007-48453897e574"><path d="M325.97607421875,24.837005615234375C325.97607421875,15.602996826171875,318.4208984375,8.048004150390625,309.18701171875,8.048004150390625L202.822021484375,8.048004150390625C193.5869140625,8.048004150390625,186.031982421875,15.602996826171875,186.031982421875,24.837005615234375L186.031982421875,87.5250244140625C186.031982421875,96.759033203125,193.5869140625,104.31396484375,202.822021484375,104.31396484375L309.18701171875,104.31396484375C318.4208984375,104.31396484375,325.97607421875,96.759033203125,325.97607421875,87.5250244140625L325.97607421875,24.837005615234375Z" style="fill: rgb(252, 109, 38); fill-opacity: 1;"/></g></g><g id="shape-b9681bf7-c786-808b-8007-48453897e575" style="opacity: 0.2;"><g class="fills" id="fills-b9681bf7-c786-808b-8007-48453897e575"><path d="M256.00390625,88.8809814453125C251.55908203125,88.8809814453125,247.9560546875,85.27899169921875,247.9560546875,80.8330078125L247.9560546875,36.089996337890625C247.9560546875,31.644012451171875,251.55908203125,28.0419921875,256.00390625,28.0419921875C260.449951171875,28.0419921875,264.052001953125,31.644012451171875,264.052001953125,36.089996337890625L264.052001953125,80.8330078125C264.052001953125,85.27899169921875,260.448974609375,88.8809814453125,256.00390625,88.8809814453125Z"/></g></g><g id="shape-b9681bf7-c786-808b-8007-484538980737" style="opacity: 0.2;"><g class="fills" id="fills-b9681bf7-c786-808b-8007-484538980737"><path d="M217.2021484375,88.8809814453125C212.757080078125,88.8809814453125,209.154052734375,85.27899169921875,209.154052734375,80.8330078125L209.154052734375,36.089996337890625C209.154052734375,31.644012451171875,212.757080078125,28.0419921875,217.2021484375,28.0419921875C221.64697265625,28.0419921875,225.25,31.644012451171875,225.25,36.089996337890625L225.25,80.8330078125C225.25,85.27899169921875,221.64697265625,88.8809814453125,217.2021484375,88.8809814453125Z"/></g></g><g id="shape-b9681bf7-c786-808b-8007-484538980738" style="opacity: 0.2;"><g class="fills" id="fills-b9681bf7-c786-808b-8007-484538980738"><path d="M294.80615234375,88.8809814453125C290.35986328125,88.8809814453125,286.758056640625,85.27899169921875,286.758056640625,80.8330078125L286.758056640625,36.089996337890625C286.758056640625,31.644012451171875,290.35986328125,28.0419921875,294.80615234375,28.0419921875C299.251953125,28.0419921875,302.85400390625,31.644012451171875,302.85400390625,36.089996337890625L302.85400390625,80.8330078125C302.85302734375,85.27899169921875,299.2509765625,88.8809814453125,294.80615234375,88.8809814453125Z"/></g></g><g id="shape-b9681bf7-c786-808b-8007-484538985733" style="opacity: 0.2;"><g class="fills" id="fills-b9681bf7-c786-808b-8007-484538985733"><path d="M256.0009765625,39.951995849609375C231.666015625,39.951995849609375,208.179931640625,43.569000244140625,186.031982421875,50.272003173828125L186.031982421875,87.5250244140625C186.031982421875,96.759033203125,193.5869140625,104.31396484375,202.822021484375,104.31396484375L309.18701171875,104.31396484375C318.4208984375,104.31396484375,325.97607421875,96.759033203125,325.97607421875,87.5250244140625L325.97607421875,50.274993896484375C303.828125,43.57000732421875,280.3388671875,39.951995849609375,256.0009765625,39.951995849609375Z"/></g></g><g id="shape-b9681bf7-c786-808b-8007-484538985734"><g class="fills" id="fills-b9681bf7-c786-808b-8007-484538985734"><ellipse cx="256.001" cy="281.18399999999997" rx="222.76700000000005" ry="222.76700000000002" transform="matrix(1.000000, 0.000000, 0.000000, 1.000000, 0.000000, 0.000000)" style="fill: rgb(95, 59, 146); fill-opacity: 1;"/></g></g><g id="shape-b9681bf7-c786-808b-8007-484538985735"><g class="fills" id="fills-b9681bf7-c786-808b-8007-484538985735"><ellipse cx="256.001" cy="281.1840000000001" rx="172.87999999999988" ry="172.88" transform="matrix(1.000000, 0.000000, 0.000000, 1.000000, 0.000000, 0.000000)" style="fill: rgb(255, 255, 255);"/></g></g><g id="shape-b9681bf7-c786-808b-8007-48453898b6f4" style="opacity: 0.2;"><g class="fills" id="fills-b9681bf7-c786-808b-8007-48453898b6f4"><path d="M256.0009765625,108.3060302734375C160.52099609375,108.3060302734375,83.12109375,185.708984375,83.12109375,281.18499755859375C83.12109375,376.6650390625,160.52197265625,454.0660400390625,256.0009765625,454.0660400390625C351.47998046875,454.0660400390625,428.880859375,376.6629638671875,428.880859375,281.18499755859375C428.8818359375,185.7080078125,351.47998046875,108.3060302734375,256.0009765625,108.3060302734375ZM256.0009765625,438.14697265625C169.31298828125,438.14697265625,99.0390625,367.87200927734375,99.0390625,281.18499755859375C99.0390625,194.49798583984375,169.31396484375,124.2230224609375,256.0009765625,124.2230224609375C342.68896484375,124.2230224609375,412.962890625,194.49798583984375,412.962890625,281.18499755859375C412.962890625,367.87200927734375,342.68896484375,438.14697265625,256.0009765625,438.14697265625Z"/></g></g><g id="shape-b9681bf7-c786-808b-8007-4844d27b43a6" width="380" height="380" rx="0" ry="0" style="fill: rgb(0, 0, 0);"><g id="shape-b9681bf7-c786-808b-8007-4844d27d0324"><g class="fills" id="fills-b9681bf7-c786-808b-8007-4844d27d0324"><path d="M331.26416015625,263.3724365234375L331.05078125,262.814208984375L309.851806640625,207.505126953125C309.42822265625,206.4215087890625,308.66650390625,205.5087890625,307.6748046875,204.878173828125C306.6865234375,204.2445068359375,305.52734375,203.9456787109375,304.3515625,204.008056640625C303.182861328125,204.070556640625,302.059814453125,204.497314453125,301.1435546875,205.226318359375C300.234130859375,205.9619140625,299.577392578125,206.956787109375,299.2685546875,208.079833984375L284.95556640625,251.8863525390625L227.0458984375,251.8863525390625L212.732421875,208.079833984375C212.423828125,206.956787109375,211.76708984375,205.9619140625,210.857421875,205.226318359375C209.94140625,204.497314453125,208.818359375,204.070556640625,207.6494140625,204.008056640625C206.47412109375,203.9456787109375,205.31494140625,204.2445068359375,204.32666015625,204.878173828125C203.3349609375,205.5087890625,202.572998046875,206.4215087890625,202.1494140625,207.505126953125L180.95068359375,262.8175048828125L180.737060546875,263.3724365234375C174.45556640625,279.757568359375,179.8076171875,298.280517578125,193.7958984375,308.8602294921875C193.822265625,308.876708984375,193.84521484375,308.8963623046875,193.87158203125,308.916015625L194.05859375,309.0572509765625L226.349609375,333.231201171875L242.3212890625,345.3214111328125L252.04052734375,352.670166015625C254.3818359375,354.443359375,257.619384765625,354.443359375,259.960693359375,352.670166015625L269.68017578125,345.3214111328125L285.6484375,333.231201171875L318.1298828125,308.916015625C318.1591796875,308.89306640625,318.185546875,308.8734130859375,318.215087890625,308.850341796875C332.193359375,298.2706298828125,337.54248046875,279.75439453125,331.26416015625,263.3724365234375Z" class="cls-3" style="fill: rgb(226, 67, 41); fill-opacity: 1;"/></g></g><g id="shape-b9681bf7-c786-808b-8007-4844d27d6a8e"><g class="fills" id="fills-b9681bf7-c786-808b-8007-4844d27d6a8e"><path d="M331.26416015625,263.3724365234375L331.05078125,262.814208984375C320.533203125,264.974853515625,310.8466796875,269.424072265625,302.55224609375,275.630126953125C302.417724609375,275.7286376953125,277.347412109375,294.688232421875,256.00048828125,310.8271484375C271.8505859375,322.812255859375,285.6484375,333.231201171875,285.6484375,333.231201171875L318.1298828125,308.916015625C318.1591796875,308.89306640625,318.185546875,308.8734130859375,318.215087890625,308.850341796875C332.193359375,298.2706298828125,337.54248046875,279.75439453125,331.26416015625,263.3724365234375Z" class="cls-2" style="fill: rgb(252, 109, 38); fill-opacity: 1;"/></g></g><g id="shape-b9681bf7-c786-808b-8007-4844d27dbc01"><g class="fills" id="fills-b9681bf7-c786-808b-8007-4844d27dbc01"><path d="M226.349609375,333.231201171875L242.3212890625,345.3214111328125L252.04052734375,352.670166015625C254.3818359375,354.4432373046875,257.619384765625,354.4432373046875,259.960693359375,352.670166015625L269.68017578125,345.3214111328125L285.6484375,333.231201171875C285.6484375,333.231201171875,271.8505859375,322.812255859375,256.00048828125,310.8271484375C240.1474609375,322.812255859375,226.349609375,333.231201171875,226.349609375,333.231201171875Z" class="cls-1" style="fill: rgb(252, 163, 38); fill-opacity: 1;"/></g></g><g id="shape-b9681bf7-c786-808b-8007-4844d27dbc02"><g class="fills" id="fills-b9681bf7-c786-808b-8007-4844d27dbc02"><path d="M209.445556640625,275.630126953125C201.154541015625,269.4273681640625,191.47119140625,264.974853515625,180.95068359375,262.8175048828125L180.737060546875,263.3724365234375C174.45556640625,279.757568359375,179.8076171875,298.280517578125,193.7958984375,308.8602294921875C193.822265625,308.876708984375,193.84521484375,308.8963623046875,193.87158203125,308.916015625L194.05859375,309.0572509765625L226.349609375,333.231201171875C226.349609375,333.231201171875,240.1474609375,322.812255859375,256.00048828125,310.8271484375C234.65380859375,294.688232421875,209.580322265625,275.7286376953125,209.445556640625,275.630126953125Z" class="cls-2" style="fill: rgb(252, 109, 38); fill-opacity: 1;"/></g></g></g><g id="shape-b9681bf7-c786-808b-8007-48453898b6f5"><g class="fills" id="fills-b9681bf7-c786-808b-8007-48453898b6f5"><path d="M256.0009765625,298.35198974609375C251.60693359375,298.35198974609375,247.212890625,296.67498779296875,243.85986328125,293.322998046875C237.156005859375,286.6190185546875,237.156005859375,275.74700927734375,243.85986328125,269.04296875L316.27587890625,196.62701416015625C322.97998046875,189.9229736328125,333.85205078125,189.9229736328125,340.55615234375,196.62701416015625C347.260009765625,203.33099365234375,347.260009765625,214.2030029296875,340.55615234375,220.906982421875L268.14208984375,293.322998046875C264.7890625,296.676025390625,260.39501953125,298.35198974609375,256.0009765625,298.35198974609375Z" style="fill: rgb(80, 48, 133); fill-opacity: 1;"/></g></g><g id="shape-b9681bf7-c786-808b-8007-48453898b6f6"><g class="fills" id="fills-b9681bf7-c786-808b-8007-48453898b6f6"><path d="M256.0048828125,183.43603515625C251.56005859375,183.43603515625,247.95703125,179.833984375,247.95703125,175.38800048828125L247.95703125,137.29901123046875C247.95703125,132.85302734375,251.56005859375,129.2509765625,256.0048828125,129.2509765625C260.449951171875,129.2509765625,264.053955078125,132.85302734375,264.053955078125,137.29901123046875L264.053955078125,175.38800048828125C264.052978515625,179.833984375,260.448974609375,183.43603515625,256.0048828125,183.43603515625Z" style="fill: rgb(125, 134, 140);"/></g></g><g id="shape-b9681bf7-c786-808b-8007-48453898e461"><g class="fills" id="fills-b9681bf7-c786-808b-8007-48453898e461"><path d="M150.203125,289.23095703125L112.114013671875,289.23095703125C107.6689453125,289.23095703125,104.06591796875,285.6290283203125,104.06591796875,281.1829833984375C104.06591796875,276.73699951171875,107.6689453125,273.135009765625,112.114013671875,273.135009765625L150.203125,273.135009765625C154.64794921875,273.135009765625,158.2509765625,276.73699951171875,158.2509765625,281.1829833984375C158.2509765625,285.6290283203125,154.64794921875,289.23095703125,150.203125,289.23095703125Z" style="fill: rgb(125, 134, 140);"/></g></g><g id="shape-b9681bf7-c786-808b-8007-48453898e462"><g class="fills" id="fills-b9681bf7-c786-808b-8007-48453898e462"><path d="M255.99609375,433.1199951171875C251.551025390625,433.1199951171875,247.947998046875,429.51800537109375,247.947998046875,425.072021484375L247.947998046875,386.9849853515625C247.947998046875,382.53900146484375,251.551025390625,378.93701171875,255.99609375,378.93701171875C260.44189453125,378.93701171875,264.0439453125,382.53900146484375,264.0439453125,386.9849853515625L264.0439453125,425.072021484375C264.0439453125,429.5159912109375,260.44189453125,433.1199951171875,255.99609375,433.1199951171875Z" style="fill: rgb(125, 134, 140);"/></g></g><g id="shape-b9681bf7-c786-808b-8007-48453898e463"><g class="fills" id="fills-b9681bf7-c786-808b-8007-48453898e463"><path d="M399.886962890625,289.23699951171875L361.799072265625,289.23699951171875C357.35302734375,289.23699951171875,353.7509765625,285.635009765625,353.7509765625,281.18896484375C353.7509765625,276.7430419921875,357.35302734375,273.1409912109375,361.799072265625,273.1409912109375L399.886962890625,273.1409912109375C404.3330078125,273.1409912109375,407.93505859375,276.7430419921875,407.93505859375,281.18896484375C407.93505859375,285.635009765625,404.3330078125,289.23699951171875,399.886962890625,289.23699951171875Z" style="fill: rgb(125, 134, 140);"/></g></g></g></svg>